<svg width="17" height="17" viewBox="0 0 17 17" fill="none" xmlns="http://www.w3.org/2000/svg">
<path d="M14.0325 14.9038L12.9952 13.9784C16.3809 10.958 16.3809 6.0427 12.9952 3.02233L14.0319 2.09696C17.9893 5.62846 17.9893 11.3723 14.0325 14.9038ZM12.2399 3.69497L11.2026 4.61922C13.6012 6.75897 13.6012 10.2406 11.2026 12.3804L12.2412 13.3046C15.2089 10.6565 15.2089 6.3436 12.2399 3.69497ZM10.3902 5.34569L9.35289 6.27163C10.7313 7.50018 10.7313 9.50223 9.35289 10.7308L10.3902 11.6562C12.3397 9.9159 12.3397 7.08424 10.3902 5.34569ZM0.202633 4.78525C0.0933765 5.98943 0.0304903 7.19531 0.00635214 8.40232H0C0.000635214 8.43519 0.00317607 8.46692 0.00317607 8.49979C0.00317607 8.53322 0.000635214 8.56496 0 8.59669H0.00698738C0.0311255 9.8037 0.0940117 11.0107 0.203269 12.2143C0.485939 15.365 3.26119 17.4572 5.98245 16.9143C6.10187 16.8928 6.22637 16.8916 6.3388 16.8508C7.00133 16.6049 7.55016 16.1476 8.16187 15.8099C8.94191 15.3735 7.2605 11.6732 6.21875 12.1509C5.83381 12.3299 4.77046 13.0309 4.34296 13.0836C3.9612 13.1312 3.66265 12.6807 3.62453 12.2648C3.5248 11.1665 3.615 9.76347 3.62263 8.59726H3.62453C3.62453 8.56609 3.6239 8.53266 3.6239 8.50036C3.6239 8.46806 3.62453 8.43406 3.62453 8.40345H3.62199C3.61437 7.23724 3.52417 5.83416 3.6239 4.73595C3.66201 4.31945 3.96056 3.86837 4.34232 3.91711C4.76982 3.96981 5.83317 4.67078 6.21811 4.84985C7.25986 5.32756 8.94064 1.62605 8.16123 1.19085C7.54952 0.852544 7.0007 0.394672 6.33817 0.14987C6.22573 0.107936 6.1006 0.107369 5.98181 0.0858358C3.26055 -0.457603 0.485939 1.63512 0.202633 4.78525Z" fill="#1C1C1C"/>
</svg>
