<svg width="26" height="20" viewBox="0 0 26 20" fill="none" xmlns="http://www.w3.org/2000/svg">
<path d="M23.5625 0.25H2.43752C1.09339 0.25 0 1.34339 0 2.68752V17.3125C0 18.6566 1.09339 19.75 2.43752 19.75H23.5625C24.9066 19.75 26 18.6566 26 17.3125V2.68752C26 1.34339 24.9066 0.25 23.5625 0.25ZM23.5625 1.87499C23.6729 1.87499 23.7779 1.8979 23.8739 1.9379L13 11.3624L2.12604 1.9379C2.22205 1.89795 2.32707 1.87499 2.43746 1.87499H23.5625ZM23.5625 18.125H2.43752C1.98922 18.125 1.62499 17.7608 1.62499 17.3125V3.65472L12.4676 13.0516C12.6207 13.1841 12.8104 13.25 13 13.25C13.1896 13.25 13.3793 13.1842 13.5324 13.0516L24.375 3.65472V17.3125C24.375 17.7608 24.0108 18.125 23.5625 18.125Z" fill="#C10000"/>
</svg>
