<svg width="70" height="91" viewBox="0 0 70 91" fill="none" xmlns="http://www.w3.org/2000/svg">
<path d="M49.439 36.0451C55.449 30.5444 63.5764 23.1049 64.3172 5.33203H69.6832V0H0.635498V5.33203H6.00157C6.74233 23.1049 14.8698 30.5444 20.8798 36.0451C24.9113 39.735 27.1923 41.9935 27.1923 45.5C27.1923 49.0065 24.9113 51.265 20.8798 54.9549C14.8698 60.4556 6.74233 67.8951 6.00157 85.668H0.635498V91H69.6832V85.668H64.3172C63.5764 67.8951 55.449 60.4556 49.439 54.9549C45.4075 51.265 43.1264 49.0065 43.1264 45.5C43.1264 41.9935 45.4075 39.735 49.439 36.0451ZM32.5037 65.4841C31.6834 65.654 30.8731 65.9012 30.0822 66.2297L13.8158 72.987C16.4722 66.2064 20.7507 62.2886 24.4582 58.8953C28.5958 55.1083 32.5037 51.5314 32.5037 45.5V65.4841ZM45.8605 58.8953C49.568 62.2886 53.8463 66.2064 56.5029 72.9868L40.2365 66.2295C39.4456 65.9011 38.6353 65.6538 37.815 65.4839V45.5C37.815 51.5314 41.723 55.1083 45.8605 58.8953ZM13.7225 17.7734C12.4384 14.4144 11.5516 10.3587 11.3195 5.33203H58.9991C58.767 10.3587 57.8803 14.4144 56.596 17.7734H13.7225Z" fill="#910002"/>
</svg>
